<?xml version="1.0" standalone="no"?>
<!DOCTYPE svg PUBLIC "-//W3C//DTD SVG 20010904//EN"
 "http://www.w3.org/TR/2001/REC-SVG-20010904/DTD/svg10.dtd">
<svg version="1.0" xmlns="http://www.w3.org/2000/svg"
 width="1920.000000pt" height="1920.000000pt" viewBox="0 0 1920.000000 1920.000000"
 preserveAspectRatio="xMidYMid meet">
<metadata>
Created by potrace 1.16, written by Peter Selinger 2001-2019
</metadata>
<g transform="translate(0.000000,1920.000000) scale(0.100000,-0.100000)"
fill="#2563eb" stroke="none">
<path d="M9405 17149 c-1162 -73 -2291 -477 -3185 -1138 -587 -433 -1100 -980
-1507 -1604 -134 -206 -147 -225 -211 -337 -530 -925 -820 -1880 -892 -2940
-20 -290 -11 -782 20 -1130 70 -771 316 -1634 666 -2335 118 -236 354 -640
328 -560 -8 21 -6 21 16 -9 10 -13 10 -17 3 -12 -7 4 -13 4 -13 0 0 -7 107
-168 141 -212 l18 -23 5 33 c4 18 17 103 31 188 30 182 48 251 86 340 16 36
22 56 14 46 -20 -26 -43 -29 -55 -7 -12 23 49 94 73 85 10 -3 -5 34 -40 98
-254 472 -376 760 -547 1293 -62 195 -162 628 -201 870 -26 158 -54 458 -65
695 -15 292 2 619 50 995 40 313 141 736 262 1100 113 337 182 504 349 835
573 1141 1420 2031 2449 2574 599 317 1277 527 1955 605 523 61 978 52 1475
-30 803 -132 1501 -416 2135 -867 794 -565 1390 -1312 1789 -2241 36 -85 77
-169 91 -187 38 -50 116 -84 192 -84 72 0 113 14 162 56 42 35 81 116 81 167
0 109 -233 644 -429 987 -384 668 -848 1195 -1456 1652 -553 415 -1227 737
-1910 913 -431 111 -742 160 -1165 185 -191 11 -527 11 -715 -1z m-4560 -9911
c-10 -60 -21 -77 -30 -49 -3 11 -11 19 -16 16 -13 -9 -11 8 7 43 8 18 22 32
31 32 12 0 13 -8 8 -42z"/>
<path d="M10513 15709 c-340 -31 -849 -221 -1233 -459 -413 -257 -785 -608
-871 -821 -31 -76 -37 -234 -15 -349 29 -146 188 -645 257 -807 l14 -32 145
115 c212 168 484 367 740 540 618 417 1300 803 1777 1005 84 35 153 68 153 72
0 13 -340 404 -465 535 -65 67 -136 133 -159 147 -84 49 -200 67 -343 54z"/>
<path d="M12475 15044 c-253 -41 -606 -151 -947 -295 -572 -242 -1278 -634
-1888 -1048 -615 -417 -1283 -963 -1468 -1199 -141 -180 -19 -275 244 -191
119 38 337 130 495 209 65 33 122 60 126 60 5 -1 19 -24 32 -53 34 -71 148
-239 215 -316 l56 -65 0 -95 c0 -53 -5 -129 -10 -170 -6 -41 -8 -76 -6 -78 2
-3 51 -9 108 -14 217 -20 495 -72 678 -129 213 -66 515 -201 708 -318 81 -50
83 -50 92 -29 6 12 46 116 89 231 44 115 89 218 100 230 30 29 123 32 344 11
265 -25 383 -12 488 56 132 84 171 222 109 389 -41 111 -39 128 14 182 51 52
64 94 42 136 -9 17 -21 32 -28 35 -9 3 -3 12 15 26 34 28 36 81 7 166 -21 60
-25 102 -12 122 4 6 45 30 92 52 95 46 115 61 150 111 32 45 33 121 3 171 -11
20 -83 114 -160 210 -156 196 -253 322 -253 333 0 3 17 32 38 63 35 53 37 61
37 133 0 72 -3 84 -44 164 -25 47 -43 87 -40 88 2 2 83 43 179 92 450 228 735
426 794 550 35 74 16 142 -50 176 -40 20 -235 23 -349 4z"/>
<path d="M6830 11904 c-205 -29 -363 -80 -474 -155 -190 -126 -336 -356 -388
-608 -26 -126 -21 -326 11 -446 27 -105 90 -231 144 -290 l43 -48 127 12 c228
20 627 7 806 -26 l34 -6 -26 34 c-74 98 -137 276 -157 445 -36 293 88 637 313
868 67 69 188 157 257 188 16 7 30 16 30 19 0 13 -93 19 -355 23 -196 4 -286
1 -365 -10z"/>
<path d="M7810 11870 c-125 -21 -282 -106 -398 -214 -219 -205 -347 -544 -313
-830 22 -184 93 -368 183 -469 l43 -48 310 -65 c313 -65 477 -95 483 -89 2 2
-10 11 -28 20 -47 24 -177 152 -223 219 -49 73 -101 191 -129 293 -17 63 -21
108 -21 233 0 139 2 164 26 240 84 276 233 461 451 560 79 36 171 60 229 60
25 0 48 4 51 8 7 12 -235 58 -399 77 -139 16 -194 17 -265 5z"/>
<path d="M6050 11763 c-196 -20 -386 -62 -478 -105 -171 -81 -311 -290 -358
-533 -25 -132 -23 -334 5 -450 43 -181 151 -344 268 -407 81 -44 104 -44 249
0 71 22 162 46 202 53 39 7 72 16 72 19 0 3 -18 32 -40 65 -108 163 -171 426
-149 623 30 267 130 479 318 675 l64 67 -59 -2 c-32 0 -75 -3 -94 -5z"/>
<path d="M9030 11693 c-20 -8 -50 -34 -61 -55 -7 -12 4 -34 46 -88 141 -187
207 -421 185 -663 -10 -108 -36 -220 -70 -303 l-21 -50 36 -120 c20 -65 39
-140 42 -167 l6 -47 91 88 c148 143 254 216 456 317 131 66 240 105 400 146
108 27 148 32 295 36 143 4 189 2 294 -16 101 -17 270 -66 396 -115 11 -4 -18
18 -65 49 -222 149 -467 234 -768 266 -179 20 -403 -10 -616 -81 -105 -36
-327 -142 -403 -193 -54 -36 -60 -36 -44 5 5 13 12 34 15 48 6 30 86 85 221
153 153 77 278 119 460 152 114 22 409 16 525 -10 258 -58 586 -225 802 -408
54 -46 119 -90 210 -144 11 -6 -1 52 -29 137 -32 98 -90 188 -184 281 -349
348 -1004 653 -1594 743 -237 36 -575 57 -625 39z"/>
<path d="M8349 11666 c-382 -106 -601 -536 -494 -971 8 -33 36 -102 61 -153
98 -199 272 -328 470 -347 98 -10 183 8 292 62 229 112 381 340 414 623 41
346 -154 697 -432 780 -78 23 -236 26 -311 6z m213 -247 c176 -37 290 -171
326 -383 15 -85 15 -99 -1 -176 -21 -110 -63 -193 -133 -263 -83 -83 -162
-120 -274 -125 -105 -5 -162 11 -249 69 -142 95 -218 307 -177 492 35 155 121
276 245 341 104 55 166 65 263 45z"/>
<path d="M8408 11307 c-90 -26 -165 -94 -216 -197 -25 -51 -27 -65 -27 -175 0
-119 0 -121 36 -185 62 -113 189 -182 305 -166 243 33 371 298 261 540 -67
145 -218 222 -359 183z m121 -252 c17 -8 38 -34 51 -61 27 -56 24 -138 -8
-201 -27 -53 -132 -146 -132 -118 0 3 15 28 34 55 45 65 59 111 54 172 -6 56
-42 103 -89 113 -34 8 -35 12 -12 37 20 22 64 23 102 3z"/>
<path d="M10346 10670 c-382 -48 -752 -228 -1065 -517 l-73 -68 12 -120 c9
-85 15 -461 20 -1290 4 -643 7 -1171 8 -1172 1 -2 9 -3 18 -3 31 0 123 -52
164 -92 23 -23 51 -60 62 -81 46 -91 63 -289 32 -367 -15 -38 -15 -42 0 -59
29 -32 55 -116 67 -213 6 -51 14 -325 18 -608 l6 -514 79 89 c132 152 413 536
513 705 24 39 25 23 -27 300 -44 231 -95 553 -134 845 -71 525 -71 530 -70
840 0 160 5 310 11 335 l10 45 7 -65 c106 -922 159 -1327 211 -1620 8 -47 35
-197 59 -335 25 -137 50 -302 56 -365 14 -137 79 -505 121 -680 27 -110 51
-195 105 -373 15 -49 83 -229 88 -234 1 -2 50 4 107 11 462 65 1026 91 1442
68 107 -6 117 -5 117 10 0 41 -159 526 -196 600 -20 38 -24 63 -24 130 0 129
-25 202 -103 305 -51 69 -55 101 -32 313 17 161 17 174 -1 376 -34 385 -23
897 31 1484 42 448 49 561 49 795 1 267 -8 342 -59 526 -63 222 -149 374 -300
525 -123 124 -224 195 -404 285 -300 149 -660 223 -925 189z m587 -206 c43 -4
77 -10 77 -14 0 -4 -48 -10 -107 -13 -179 -9 -358 -74 -541 -197 -317 -212
-559 -592 -646 -1012 -51 -247 -38 -560 35 -829 12 -44 19 -82 17 -85 -8 -8
-86 170 -112 258 -47 155 -59 254 -53 458 4 137 11 208 26 273 112 482 408
891 776 1075 163 81 306 104 528 86z"/>
<path d="M9031 10335 c-65 -324 -243 -526 -646 -732 -153 -79 -608 -265 -614
-251 -4 13 54 73 106 109 22 16 153 85 290 153 358 181 559 318 660 450 44 58
123 210 123 236 0 7 -24 -10 -54 -38 -142 -135 -341 -214 -573 -229 -94 -5
-108 -9 -170 -44 -135 -75 -253 -191 -328 -324 -80 -141 -115 -277 -185 -715
-27 -168 -56 -332 -65 -365 -46 -176 -132 -244 -315 -252 -52 -2 -101 0 -109
5 -8 6 -17 31 -21 56 l-7 46 106 0 c127 0 176 18 215 77 35 53 50 120 91 403
57 387 111 613 180 749 l34 68 -142 26 c-78 15 -150 27 -159 27 -10 0 -18 4
-18 9 0 5 8 23 18 40 20 35 29 37 127 16 39 -7 106 -18 150 -24 l80 -10 51 49
c77 73 203 146 279 162 12 3 2 7 -25 12 -261 43 -351 59 -446 80 -603 133
-1055 173 -1448 127 -326 -39 -446 -71 -549 -150 -53 -41 -157 -159 -157 -179
0 -4 23 -5 52 -3 l52 3 -25 -33 c-16 -21 -43 -39 -73 -49 -60 -20 -90 -48
-126 -119 -91 -182 -171 -520 -201 -852 -15 -179 -8 -240 36 -288 l33 -36 6
25 c3 14 15 87 27 163 l22 137 64 0 63 0 0 43 c0 61 53 314 95 451 113 373
308 687 448 722 28 7 28 6 -22 -65 -28 -39 -51 -73 -51 -75 0 -3 15 0 33 5 50
15 240 37 377 44 169 9 522 -18 792 -61 l37 -6 -31 -46 -31 -45 -66 7 c-36 3
-127 13 -201 22 -285 32 -695 29 -906 -7 l-61 -11 -41 -71 c-83 -146 -156
-336 -217 -572 -37 -141 -76 -337 -74 -376 0 -13 -12 -90 -26 -171 -26 -140
-26 -150 -11 -182 22 -47 21 -68 -20 -320 -41 -255 -47 -281 -82 -318 -22 -24
-34 -28 -78 -28 -28 0 -75 5 -104 10 -29 6 -55 9 -56 7 -6 -5 -44 -334 -44
-375 0 -29 -7 -45 -26 -63 -49 -44 -71 -112 -99 -298 -12 -79 -13 -111 -4
-148 17 -71 21 -76 80 -89 114 -27 129 -17 159 102 17 69 86 564 106 757 5 53
10 67 23 67 10 0 26 7 37 15 37 28 36 43 8 -275 -8 -91 -17 -178 -20 -195 l-6
-30 32 38 c40 48 95 75 140 71 19 -2 96 -8 170 -14 253 -21 911 -87 917 -93 1
-2 -2 -29 -8 -60 -11 -54 -12 -55 -43 -51 -34 5 -473 52 -786 84 -283 29 -284
29 -335 -22 -26 -27 -50 -65 -63 -101 -26 -68 -64 -260 -67 -337 -1 -30 -17
-100 -34 -155 -32 -103 -38 -153 -21 -185 14 -27 97 -55 238 -79 68 -12 129
-24 136 -27 9 -3 18 25 31 100 10 59 24 111 32 118 11 9 36 8 110 -1 53 -7
102 -15 110 -18 18 -7 17 -20 -9 -151 -19 -99 -20 -115 -7 -139 15 -29 15
-119 -1 -232 -15 -108 -53 -127 -206 -100 -76 13 -93 24 -103 69 -13 58 11
224 37 260 24 32 20 40 -9 14 -16 -14 -28 -14 -142 6 -68 11 -139 25 -158 30
-18 5 -34 9 -35 7 -4 -4 -33 -272 -46 -417 -7 -80 -12 -266 -13 -415 0 -399
25 -510 130 -567 102 -54 413 -130 745 -182 286 -44 382 -56 496 -63 135 -7
130 -14 112 149 -9 75 -13 253 -13 528 1 468 13 656 50 756 26 70 55 128 60
122 2 -2 0 -200 -5 -441 -6 -297 -5 -534 2 -739 6 -167 11 -323 12 -347 l0
-44 146 6 c80 4 156 9 170 12 l25 7 -25 -22 c-38 -34 -109 -66 -175 -81 -220
-47 -957 41 -1433 170 -62 17 -114 31 -117 31 -10 0 35 -103 67 -157 67 -112
174 -184 408 -276 401 -157 1041 -308 1560 -367 l172 -20 136 82 c164 98 536
286 756 383 l158 70 -158 6 c-299 13 -396 49 -469 174 -58 100 -65 208 -54
876 13 770 24 1053 43 1114 9 28 16 51 16 52 0 1 -15 5 -32 8 -88 19 -148 74
-172 156 -21 71 -45 238 -48 341 -2 49 -5 88 -7 88 -3 0 -15 -10 -28 -21 -17
-17 -26 -19 -36 -11 -12 10 -15 -10 -20 -125 -12 -241 -8 -2402 4 -2515 14
-129 50 -272 89 -350 17 -34 29 -63 26 -65 -9 -10 -99 106 -127 163 -38 81
-74 223 -88 347 -22 198 -7 2749 19 3267 11 227 80 880 92 880 5 0 7 -15 4
-32 -3 -18 -8 -356 -12 -751 l-6 -718 41 22 c39 20 41 23 41 69 0 107 47 296
83 339 8 9 17 36 21 60 18 117 123 256 241 318 153 80 433 112 630 71 123 -26
236 -119 303 -249 18 -35 44 -72 57 -82 l24 -17 -4 722 c-7 1003 -13 1281 -30
1441 -14 133 -33 233 -53 287 -8 22 -11 19 -21 -35z m-1538 -367 c-96 -133
-149 -236 -222 -432 -87 -233 -190 -673 -177 -757 3 -20 1 -49 -4 -65 -5 -16
-18 -96 -29 -179 l-20 -150 22 -23 c19 -21 22 -34 20 -105 -2 -114 -50 -472
-68 -507 -8 -15 -29 -40 -47 -55 l-33 -27 28 5 c24 4 27 1 27 -23 0 -33 -36
-385 -49 -490 -6 -41 -17 -129 -26 -195 -41 -314 -96 -399 -259 -398 -80 1
-152 17 -178 40 -11 10 -18 30 -18 53 0 49 34 156 61 195 l21 30 -6 -45 c-4
-25 -9 -68 -12 -96 l-7 -52 34 -10 c95 -30 160 -23 191 19 12 16 30 82 48 180
39 211 118 784 109 794 -2 2 -45 9 -94 15 -103 13 -155 32 -174 62 -32 52 -22
193 33 477 26 133 42 168 84 177 49 11 52 13 52 47 0 40 39 328 46 339 3 4 38
8 78 8 l73 0 7 58 c31 275 134 648 231 843 45 89 131 213 180 258 41 38 104
75 113 66 2 -2 -14 -27 -35 -57z m-1208 -1428 c124 -11 455 -56 461 -63 2 -2
-7 -24 -20 -48 -27 -52 -10 -51 -281 -20 -277 32 -430 41 -677 41 l-228 0 0
50 0 49 93 4 c141 7 518 -1 652 -13z m371 -1070 c-8 -51 -17 -95 -20 -98 -9
-9 -7 43 4 100 19 92 21 100 26 95 3 -2 -2 -46 -10 -97z m429 -224 c33 -8 109
-19 170 -26 60 -6 112 -13 114 -15 7 -8 -20 -33 -48 -45 l-29 -12 -7 -131 c-3
-73 -10 -616 -13 -1207 -7 -1060 -7 -1075 -28 -1110 -19 -33 -76 -80 -97 -80
-5 0 -1 12 9 28 17 26 18 80 21 1032 1 676 6 1078 15 1228 7 123 10 226 6 228
-4 3 -57 -12 -118 -32 -61 -20 -113 -34 -116 -31 -3 2 4 32 16 66 11 33 20 74
20 91 0 34 3 35 85 16z m-1350 -426 c171 -22 399 -50 508 -62 170 -19 197 -24
191 -37 -3 -9 -8 -33 -11 -53 -4 -26 -11 -38 -22 -38 -86 1 -1045 130 -1057
143 -3 2 0 27 6 55 l11 50 32 -9 c18 -5 172 -27 342 -49z m1040 -402 c-3 -24
-19 -71 -36 -104 -32 -68 -76 -104 -150 -124 -51 -14 -219 -8 -463 18 l-159
17 -13 50 c-7 28 -10 52 -8 54 2 2 117 -8 256 -23 287 -30 336 -31 381 -12 42
17 90 67 112 116 17 38 29 46 68 49 16 1 18 -4 12 -41z m-1085 -535 c0 -25 10
-29 27 -12 20 20 33 0 28 -44 -2 -23 -7 -86 -10 -139 -5 -83 -3 -98 10 -98 10
0 15 11 16 38 1 20 4 86 8 147 l6 109 39 8 c21 5 40 7 41 6 0 -2 -4 -89 -9
-195 -7 -126 -15 -196 -23 -204 -16 -16 -177 3 -201 23 -13 11 -14 40 -9 205
3 106 8 197 12 202 10 17 65 -22 65 -46z"/>
<path d="M6945 8703 c-33 -5 -45 -18 -45 -47 0 -19 1 -19 20 2 27 29 42 28 35
-3 -3 -14 -8 -37 -11 -52 -3 -16 -8 -48 -10 -73 -2 -25 -6 -62 -9 -82 -4 -32
-2 -38 13 -38 16 0 21 17 35 138 19 155 20 163 10 161 -5 -1 -21 -4 -38 -6z"/>
<path d="M6887 8578 c-11 -48 -17 -123 -8 -103 23 50 34 106 24 116 -7 7 -12
3 -16 -13z"/>
<path d="M6746 8279 c-19 -68 -46 -213 -46 -248 0 -20 5 -26 23 -27 12 0 54
-2 92 -5 l70 -4 7 73 c13 126 55 178 60 75 l3 -58 18 91 c9 51 17 99 17 108 0
25 -28 33 -132 41 l-97 7 -15 -53z m144 -16 c-1 -5 -11 -21 -24 -37 l-24 -29
-12 22 c-9 17 -9 26 1 37 12 14 59 20 59 7z"/>
<path d="M6936 8011 c-3 -5 -11 -33 -16 -62 -6 -29 -12 -55 -15 -57 -4 -4
-169 11 -205 20 -11 2 -16 -7 -18 -37 -1 -22 2 -46 6 -53 10 -15 217 -41 229
-29 7 8 35 219 29 225 -2 2 -7 -1 -10 -7z"/>
<path d="M5686 5682 c-8 -70 -4 -96 12 -76 4 5 5 41 2 79 l-5 70 -9 -73z"/>
<path d="M5360 8771 c0 -5 -3 -18 -7 -28 -6 -16 -5 -16 10 -4 10 8 20 11 24 7
8 -7 -15 -167 -27 -186 -4 -7 -15 -10 -24 -7 -11 4 -16 1 -16 -12 0 -13 10
-20 37 -24 20 -4 38 -5 39 -4 1 1 10 62 21 135 l19 132 -38 0 c-21 0 -38 -4
-38 -9z"/>
<path d="M12086 8659 c-4 -57 -13 -183 -21 -279 -35 -443 -43 -1144 -19 -1625
4 -75 2 -160 -6 -225 -7 -58 -13 -142 -13 -187 1 -76 3 -86 31 -120 70 -89
112 -214 112 -334 0 -51 7 -81 29 -130 15 -35 43 -107 61 -159 18 -52 34 -97
37 -100 10 -10 -25 494 -62 900 -37 397 -84 1011 -85 1116 0 17 12 26 60 44
105 39 111 59 89 303 -14 168 -25 190 -86 180 l-33 -6 0 47 c0 102 -64 636
-80 665 -4 7 -10 -33 -14 -90z"/>
<path d="M5342 8640 c0 -14 2 -19 5 -12 2 6 2 18 0 25 -3 6 -5 1 -5 -13z"/>
<path d="M5191 8436 c-8 -9 -11 -28 -8 -43 3 -15 -1 -39 -8 -54 -16 -30 -57
-221 -49 -228 2 -3 45 -7 94 -9 l90 -4 0 35 c0 58 20 135 41 159 l20 23 -6
-60 c-10 -91 10 -56 29 53 13 68 14 97 6 106 -5 8 -34 16 -63 20 -28 4 -70 9
-93 12 -29 4 -44 2 -53 -10z m134 -57 c4 -5 1 -18 -7 -27 -8 -9 -19 -29 -26
-44 -6 -16 -16 -28 -22 -28 -13 0 -13 66 0 91 11 20 45 26 55 8z"/>
<path d="M8409 8166 c-117 -18 -215 -49 -271 -86 -102 -67 -161 -194 -150
-323 l5 -58 -28 13 c-24 11 -29 10 -41 -6 -22 -31 -37 -125 -38 -236 l-1 -104
55 -13 c30 -6 84 -15 120 -19 36 -3 71 -11 77 -16 9 -7 29 7 70 50 83 87 105
92 438 102 149 4 307 13 352 20 l83 12 -6 72 c-8 89 -35 217 -69 321 -67 206
-160 269 -415 280 -52 2 -134 -2 -181 -9z"/>
<path d="M5333 8101 c-6 -10 -17 -38 -23 -61 l-11 -43 -75 5 c-41 3 -80 10
-87 17 -21 21 -28 11 -25 -41 l3 -53 98 -9 c57 -5 102 -5 107 0 10 11 39 204
31 204 -4 0 -11 -8 -18 -19z"/>
<path d="M9057 7841 c24 -15 36 -34 47 -72 21 -68 21 -195 1 -233 -8 -15 -15
-30 -15 -33 0 -8 75 10 83 21 10 14 0 167 -14 219 -13 48 -65 104 -104 113
l-30 6 32 -21z"/>
<path d="M9105 7374 c-49 -9 -208 -17 -410 -22 -245 -6 -336 -11 -355 -21 -78
-42 -100 -102 -100 -267 l0 -112 33 -15 c120 -57 489 -83 760 -53 166 19 329
57 367 85 24 18 25 22 22 117 -4 131 -22 194 -71 243 -29 29 -52 42 -90 50
-60 13 -51 13 -156 -5z"/>
<path d="M8104 7275 c-5 -27 -11 -35 -28 -35 -27 0 -133 16 -166 25 -25 6 -25
5 -22 -49 l4 -55 46 -15 c49 -16 175 -46 179 -43 1 2 9 45 17 97 12 73 12 96
3 102 -21 13 -26 9 -33 -27z"/>
<path d="M8100 7041 l0 -39 -77 18 c-43 10 -88 21 -99 25 -22 7 -22 6 -10 -58
19 -101 54 -141 131 -152 35 -5 44 -2 72 24 31 29 31 30 18 68 -8 21 -14 64
-15 96 0 31 -4 57 -10 57 -5 0 -10 -18 -10 -39z"/>
<path d="M9400 6838 c-40 -15 -177 -45 -275 -59 -142 -22 -612 -18 -740 5 -55
10 -110 22 -124 27 -20 8 -29 5 -53 -18 -73 -70 -95 -168 -102 -443 l-4 -176
32 -21 c105 -72 512 -124 806 -103 248 18 382 46 498 102 l62 31 0 166 c0 267
-25 458 -63 489 -8 6 -21 6 -37 0z"/>
<path d="M4924 6803 c-3 -15 -10 -44 -16 -63 -5 -19 -12 -89 -15 -155 -6 -118
-5 -121 20 -150 19 -24 80 -60 134 -80 1 0 -9 -59 -22 -130 -33 -183 -47 -350
-47 -570 0 -162 3 -202 21 -268 24 -91 69 -181 118 -234 l34 -38 -6 30 c-13
72 -25 229 -25 330 0 212 34 627 66 808 16 86 16 89 -4 110 -62 66 -53 183 28
341 22 43 39 81 37 83 -3 2 -20 -12 -40 -32 -27 -27 -43 -35 -71 -35 -66 0
-137 21 -171 52 l-34 29 -7 -28z"/>
<path d="M5745 6488 c-8 -26 -25 -120 -25 -138 0 -11 7 -20 15 -20 12 0 13 4
6 19 -12 21 11 104 37 134 14 15 13 17 -7 17 -12 0 -23 -6 -26 -12z"/>
<path d="M5824 6494 c-6 -3 -9 -27 -6 -64 3 -44 0 -66 -12 -85 -16 -24 -15
-25 3 -25 20 0 25 15 37 118 6 59 3 66 -22 56z"/>
<path d="M5686 6254 c-3 -9 -6 -18 -6 -20 0 -2 24 -4 53 -4 66 0 83 -10 68
-38 -6 -11 -11 -37 -11 -56 0 -31 -3 -36 -24 -36 -58 0 -85 12 -89 39 -2 14
-5 0 -6 -31 -1 -63 -3 -62 85 -73 l51 -7 6 44 c4 24 9 73 13 110 6 67 6 68
-21 78 -42 16 -112 13 -119 -6z"/>
<path d="M10175 6132 c-158 -240 -369 -508 -493 -623 l-79 -74 -6 -150 c-9
-208 -27 -341 -63 -457 -4 -14 18 -11 148 23 212 56 462 112 663 148 94 17
173 31 176 31 4 0 -9 48 -28 108 -92 288 -158 571 -214 912 -17 102 -31 186
-32 187 -1 1 -34 -47 -72 -105z"/>
<path d="M9431 6024 c-128 -63 -352 -96 -651 -97 -271 0 -480 28 -624 85 -27
10 -51 16 -54 13 -3 -3 -6 -272 -6 -598 -1 -478 2 -600 13 -632 51 -148 165
-182 586 -172 l230 6 205 71 c113 39 216 79 230 89 62 45 99 145 120 321 11
89 27 897 19 930 -3 12 -16 9 -68 -16z m-31 -144 l-23 -32 22 -42 c11 -24 21
-46 21 -50 0 -14 -19 -5 -25 12 -3 9 -12 26 -20 37 -15 19 -16 19 -33 -5 -9
-13 -26 -38 -37 -55 -11 -18 -40 -61 -64 -95 -37 -53 -42 -66 -32 -81 16 -27
13 -34 -7 -16 -17 16 -21 12 -65 -53 -50 -73 -54 -89 -35 -108 7 -7 8 -12 2
-12 -5 0 -15 5 -21 11 -9 9 -21 -2 -47 -42 -62 -93 -69 -103 -92 -129 -12 -14
-25 -34 -28 -45 -9 -27 -76 -102 -76 -84 0 7 25 50 55 95 30 45 55 87 55 93 0
6 4 11 8 11 5 0 30 34 55 75 l46 75 -24 26 c-14 15 -27 35 -31 46 -3 10 -9 18
-14 16 -12 -5 -160 -229 -160 -243 0 -7 7 -18 15 -25 8 -7 15 -19 15 -28 0
-12 -6 -10 -25 8 -14 13 -26 22 -28 19 -2 -2 -19 -26 -37 -53 -28 -42 -60 -81
-169 -209 -13 -16 -13 -21 4 -50 25 -44 84 -117 95 -117 9 0 103 95 108 111 2
4 -22 38 -52 74 -52 60 -69 92 -47 83 5 -1 36 -33 68 -69 l60 -66 39 36 c21
20 50 44 62 53 23 16 23 17 7 45 l-17 28 21 -24 21 -24 35 39 c40 46 42 55 15
79 -11 10 -20 25 -20 33 0 11 8 8 28 -11 l28 -27 25 27 c13 16 34 42 45 58 21
30 21 31 3 54 -24 29 -16 41 9 17 12 -10 26 -14 37 -10 15 6 17 3 12 -18 -5
-19 2 -37 27 -72 20 -28 37 -43 40 -37 13 21 28 11 22 -14 -5 -18 2 -36 23
-66 16 -22 32 -46 35 -52 3 -7 13 -1 26 16 32 40 43 33 20 -13 -11 -23 -18
-45 -15 -50 3 -5 -13 -26 -36 -48 -41 -38 -41 -39 -25 -64 20 -30 10 -44 -16
-21 -18 16 -21 15 -58 -22 -22 -22 -40 -47 -40 -58 0 -10 -4 -16 -9 -12 -5 3
-26 -6 -47 -20 -53 -36 -66 -30 -21 10 38 33 38 34 23 62 -8 15 -26 41 -39 57
l-23 28 -18 -27 c-10 -16 -37 -48 -59 -72 l-40 -44 23 -24 c31 -33 17 -45 -15
-15 l-25 24 -38 -36 c-44 -43 -73 -58 -104 -57 -18 0 -15 4 17 19 22 10 56 37
76 62 l36 44 -47 56 -47 56 -57 -64 -58 -65 27 -35 c35 -46 24 -56 -14 -15
l-31 33 -58 -46 c-49 -38 -65 -46 -101 -46 -38 0 -42 2 -31 15 10 12 10 18 0
30 -18 21 -3 19 27 -5 14 -11 31 -20 37 -20 7 0 33 21 59 48 l47 47 -56 70
c-31 39 -57 71 -59 73 -2 2 -29 -21 -61 -52 -57 -54 -58 -56 -40 -75 27 -30
15 -50 -13 -22 l-23 23 -39 -38 c-26 -26 -35 -41 -29 -49 7 -9 -2 -12 -35 -12
l-45 0 66 61 66 61 -34 57 c-36 61 -56 77 -73 55 -33 -45 -96 -109 -102 -104
-10 11 9 43 60 96 l47 50 -21 36 c-29 48 -18 55 16 11 l27 -35 38 48 c22 27
44 52 49 56 7 4 5 15 -5 31 -18 26 -4 33 17 8 11 -14 14 -14 28 4 9 11 30 37
48 59 l32 39 -47 53 -47 52 -48 -49 c-43 -44 -48 -52 -38 -71 9 -17 9 -21 -3
-21 -8 0 -16 5 -18 11 -4 13 -88 -87 -88 -105 0 -7 5 -17 12 -24 9 -9 9 -12 0
-12 -7 0 -12 5 -12 10 0 18 -21 10 -45 -17 -14 -17 -24 -22 -25 -14 0 19 36
77 87 137 48 57 49 63 28 104 -19 37 -11 38 19 3 l23 -26 39 42 c21 24 40 47
42 52 4 9 -69 109 -79 109 -4 0 -40 -36 -80 -80 -40 -44 -74 -78 -76 -76 -11
11 13 50 72 116 63 70 64 72 49 96 -11 15 -12 24 -5 24 6 0 14 -7 17 -15 9
-23 18 -19 64 36 l43 51 -22 38 c-30 54 -26 74 5 22 14 -24 29 -42 34 -40 4 2
31 29 60 61 40 44 50 61 41 70 -17 17 -13 29 9 22 14 -4 30 2 51 19 33 28 44
31 53 17 3 -5 -10 -23 -30 -41 -26 -22 -35 -37 -31 -51 5 -18 2 -20 -19 -15
-13 4 -24 2 -24 -3 0 -5 -21 -32 -46 -60 l-47 -52 22 -20 c12 -12 20 -24 17
-27 -4 -3 -16 4 -29 15 l-22 21 -49 -54 -48 -54 28 -36 c16 -20 37 -46 47 -58
l17 -21 18 21 c84 103 82 101 67 114 -8 7 -12 17 -9 22 3 5 14 2 24 -7 16 -15
21 -12 64 36 49 55 51 60 36 90 -14 24 5 26 19 2 7 -12 13 -14 18 -8 5 6 27
36 51 67 38 49 42 59 32 78 -14 26 -8 36 10 15 11 -13 16 -12 43 11 33 28 51
17 24 -14 -14 -15 -11 -21 24 -61 l39 -44 22 29 c42 53 68 95 68 109 0 10 11
15 32 15 24 0 29 -3 21 -11 -9 -9 -4 -23 20 -55 18 -24 34 -43 37 -43 9 -1 70
99 70 114 0 8 6 15 14 15 8 0 21 3 29 6 12 4 14 0 11 -14 -3 -11 5 -35 20 -57
14 -21 26 -42 26 -46 0 -18 16 -8 44 27 25 31 27 39 17 61 -14 31 -6 43 13 18
12 -17 14 -16 36 13 32 43 51 25 20 -18z m-1106 -28 c-16 -14 -28 -32 -26 -40
2 -10 -2 -13 -13 -9 -11 5 -25 -7 -48 -39 -28 -40 -32 -43 -35 -24 -3 15 7 34
28 55 31 32 32 33 15 59 -19 29 -11 34 16 10 17 -15 20 -15 45 5 37 29 54 14
18 -17z m161 18 c8 0 11 -7 8 -20 -3 -11 -10 -20 -15 -20 -22 0 -258 -267
-258 -291 0 -5 -4 -9 -10 -9 -38 0 58 137 197 282 29 30 43 51 38 59 -6 9 -3
11 9 6 10 -4 24 -7 31 -7z m-105 -70 c0 -5 -2 -10 -4 -10 -3 0 -8 5 -11 10 -3
6 -1 10 4 10 6 0 11 -4 11 -10z m1001 -147 l17 -26 17 26 c25 39 38 33 20 -10
-14 -33 -14 -41 0 -76 9 -22 13 -42 10 -45 -6 -6 -13 2 -34 38 -13 21 -33 1
-66 -65 l-28 -54 33 -52 34 -51 28 33 c31 38 36 27 12 -25 -16 -32 -16 -37 0
-69 25 -53 19 -66 -13 -27 l-29 34 -21 -24 c-25 -30 -29 -7 -5 28 14 21 14 26
-16 75 -18 28 -34 54 -36 56 -2 3 -18 -8 -34 -24 -39 -38 -47 -28 -14 20 l26
38 -22 39 c-16 29 -18 38 -7 38 7 0 19 -11 25 -25 6 -14 15 -25 20 -25 10 0
50 52 74 96 16 29 15 32 -3 60 -10 16 -19 32 -19 37 0 16 16 6 31 -20z m-1136
-443 c9 -16 11 -30 6 -30 -11 0 -31 32 -31 49 0 19 9 12 25 -19z m1 -227 c18
-23 17 -43 0 -43 -14 0 -26 21 -26 46 0 19 10 18 26 -3z m91 -219 c-10 -10
-67 46 -67 65 0 10 13 3 37 -21 20 -21 34 -41 30 -44z"/>
<path d="M9157 5793 l-38 -55 16 -42 c17 -43 42 -83 48 -75 2 2 22 31 45 63
41 58 52 86 32 86 -5 0 -20 18 -32 40 -13 22 -25 40 -28 40 -3 -1 -22 -26 -43
-57z"/>
<path d="M8962 5761 l-51 -72 32 -50 c17 -28 34 -52 38 -55 4 -2 28 30 54 72
52 83 52 85 1 149 l-23 29 -51 -73z"/>
<path d="M8808 5784 c-4 -3 -3 -15 3 -25 6 -13 6 -19 -1 -19 -5 0 -10 5 -10
10 0 21 -18 8 -49 -35 -17 -24 -38 -51 -46 -59 -13 -13 -12 -20 10 -62 14 -26
25 -49 25 -52 0 -12 -43 35 -51 56 -9 23 -11 22 -57 -29 -26 -29 -47 -62 -47
-73 -1 -13 -7 -20 -17 -18 -8 1 -35 -21 -61 -51 l-45 -53 47 -53 47 -53 39 44
c81 91 179 216 253 325 l40 59 -22 26 c-11 15 -28 36 -36 48 -8 12 -18 18 -22
14z m-173 -374 c3 -5 1 -10 -4 -10 -6 0 -11 5 -11 10 0 6 2 10 4 10 3 0 8 -4
11 -10z"/>
<path d="M9068 5659 c-19 -30 -42 -68 -52 -85 l-19 -31 32 -47 c18 -25 34 -46
36 -46 7 0 105 149 105 160 0 5 -4 10 -10 10 -5 0 -20 21 -33 47 l-24 47 -35
-55z"/>
<path d="M8849 5598 c-72 -101 -74 -107 -54 -140 9 -16 14 -32 11 -35 -3 -3
-11 6 -17 21 -7 14 -15 26 -19 26 -4 0 -22 -19 -40 -41 -28 -35 -31 -45 -22
-60 17 -27 15 -31 -9 -19 -11 7 -22 10 -23 8 -1 -2 -23 -28 -48 -58 -38 -45
-45 -59 -36 -73 13 -24 3 -33 -18 -16 -14 12 -22 7 -64 -41 l-47 -54 33 -46
c64 -90 64 -90 122 -14 43 56 49 69 39 85 -6 10 -8 22 -3 26 4 4 12 0 17 -10
6 -9 14 -15 20 -12 15 10 92 126 121 185 15 30 32 55 37 55 10 0 47 50 92 128
l29 47 -31 50 c-17 28 -34 50 -38 50 -4 0 -27 -28 -52 -62z"/>
<path d="M9150 5271 c0 -4 -18 -29 -41 -55 l-41 -46 37 -56 37 -56 25 24 26
23 -6 -32 c-4 -18 -2 -35 3 -38 15 -9 12 -35 -5 -35 -7 0 -18 7 -23 16 -7 13
-14 10 -40 -22 l-31 -38 21 -35 c31 -53 69 -89 75 -73 3 8 18 29 34 47 31 35
36 54 17 73 -18 18 -3 25 21 10 19 -12 24 -10 46 17 13 17 24 36 25 44 0 13
-69 111 -79 111 -3 0 -15 -10 -28 -22 -31 -29 -39 -18 -11 17 17 22 19 31 10
44 -7 9 -22 33 -34 53 -22 36 -38 48 -38 29z"/>
<path d="M9023 5118 c-18 -19 -33 -41 -33 -49 0 -8 20 -35 45 -59 43 -42 45
-43 59 -25 40 53 41 62 10 98 -16 19 -33 42 -39 51 -9 15 -13 14 -42 -16z"/>
<path d="M8398 5048 c-27 -29 -48 -57 -48 -62 0 -12 71 -116 79 -116 13 0 60
37 85 66 26 32 33 54 18 54 -5 0 -26 25 -47 55 -20 30 -38 55 -39 55 0 0 -22
-24 -48 -52z"/>
<path d="M8913 4997 l-62 -50 41 -59 c22 -32 45 -58 49 -58 10 0 109 118 109
129 0 5 -17 27 -37 49 l-38 40 -62 -51z"/>
<path d="M11430 4829 c-1098 -75 -2020 -300 -2962 -723 -539 -242 -1175 -647
-1582 -1009 l-31 -28 50 24 c259 127 816 335 1185 443 284 84 495 143 715 199
1885 484 3828 688 5310 559 213 -18 485 -54 679 -89 77 -13 141 -23 143 -21 2
2 -65 35 -149 74 -715 330 -1502 516 -2428 572 -189 11 -759 11 -930 -1z"/>
</g>
</svg>
